<svg xmlns="http://www.w3.org/2000/svg" viewBox="0 0 100 100" width="100" height="100">
  <rect width="100" height="100" fill="#111111" rx="16"/>
  <rect x="18" y="22" width="64" height="56" rx="8" fill="#ff00ff" opacity="0.08"/>
  <rect x="22" y="18" width="64" height="56" rx="8" fill="#00ffff" opacity="0.08"/>
  <rect x="20" y="20" width="60" height="54" rx="6" fill="#1a1a1a" stroke="#fce499" stroke-width="1.5"/>
  <rect x="28" y="32" width="8" height="8" fill="#fce499"/>
  <rect x="30" y="34" width="4" height="4" fill="#111111"/>
  <rect x="31" y="35" width="2" height="2" fill="#fce499" opacity="0.6"/>
  <rect x="27" y="32" width="2" height="2" fill="#00ffff" opacity="0.5"/>
  <rect x="36" y="38" width="3" height="1" fill="#ff00ff" opacity="0.4"/>
  <rect x="64" y="32" width="8" height="8" fill="#fce499"/>
  <rect x="66" y="34" width="4" height="4" fill="#111111"/>
  <rect x="67" y="35" width="2" height="2" fill="#fce499" opacity="0.6"/>
  <rect x="63" y="33" width="2" height="1" fill="#00ffff" opacity="0.5"/>
  <rect x="28" y="48" width="44" height="14" rx="2" fill="#111111" stroke="#fce499" stroke-width="1"/>
  <rect x="30" y="48" width="5" height="5" fill="#fce499"/>
  <rect x="38" y="48" width="5" height="5" fill="#fce499"/>
  <rect x="46" y="48" width="5" height="5" fill="#fce499"/>
  <rect x="54" y="48" width="5" height="5" fill="#fce499"/>
  <rect x="62" y="48" width="5" height="5" fill="#fce499"/>
  <rect x="31" y="55" width="2" height="4" fill="#fce499" opacity="0.7"/>
  <rect x="35" y="56" width="2" height="3" fill="#fce499" opacity="0.5"/>
  <rect x="39" y="54" width="2" height="5" fill="#00ffff" opacity="0.6"/>
  <rect x="43" y="56" width="2" height="3" fill="#fce499" opacity="0.7"/>
  <rect x="47" y="55" width="2" height="4" fill="#ff00ff" opacity="0.5"/>
  <rect x="51" y="56" width="2" height="3" fill="#fce499" opacity="0.6"/>
  <rect x="55" y="54" width="2" height="5" fill="#00ffff" opacity="0.4"/>
  <rect x="59" y="56" width="2" height="3" fill="#fce499" opacity="0.7"/>
  <rect x="63" y="55" width="2" height="4" fill="#fce499" opacity="0.5"/>
  <rect x="67" y="56" width="2" height="3" fill="#ff00ff" opacity="0.4"/>
  <rect x="30" y="12" width="4" height="10" fill="#fce499"/>
  <rect x="28" y="10" width="8" height="4" fill="#fce499"/>
  <rect x="66" y="12" width="4" height="10" fill="#fce499"/>
  <rect x="64" y="10" width="8" height="4" fill="#fce499"/>
  <rect x="27" y="11" width="3" height="2" fill="#00ffff" opacity="0.6"/>
  <rect x="70" y="12" width="3" height="2" fill="#ff00ff" opacity="0.5"/>
  <rect x="20" y="35" width="60" height="1" fill="#fce499" opacity="0.05"/>
  <rect x="20" y="45" width="60" height="1" fill="#fce499" opacity="0.05"/>
  <rect x="20" y="55" width="60" height="1" fill="#fce499" opacity="0.05"/>
  <rect x="20" y="38" width="15" height="2" fill="#00ffff" opacity="0.12"/>
  <rect x="65" y="42" width="15" height="1" fill="#ff00ff" opacity="0.10"/>
  <rect x="20" y="20" width="4" height="4" fill="#fce499" opacity="0.3"/>
  <rect x="76" y="20" width="4" height="4" fill="#fce499" opacity="0.3"/>
  <rect x="20" y="70" width="4" height="4" fill="#fce499" opacity="0.3"/>
  <rect x="76" y="70" width="4" height="4" fill="#fce499" opacity="0.3"/>
</svg>
